<svg width="187" height="72" viewBox="0 0 187 72" fill="none" xmlns="http://www.w3.org/2000/svg">
<path d="M90.194 28.83V31.386H94.316V33.762H90.194V36.534H94.856V39H87.116V26.364H94.856V28.83H90.194ZM96.3323 32.664C96.3323 31.416 96.6023 30.306 97.1423 29.334C97.6823 28.35 98.4323 27.588 99.3923 27.048C100.364 26.496 101.462 26.22 102.686 26.22C104.186 26.22 105.47 26.616 106.538 27.408C107.606 28.2 108.32 29.28 108.68 30.648H105.296C105.044 30.12 104.684 29.718 104.216 29.442C103.76 29.166 103.238 29.028 102.65 29.028C101.702 29.028 100.934 29.358 100.346 30.018C99.7583 30.678 99.4643 31.56 99.4643 32.664C99.4643 33.768 99.7583 34.65 100.346 35.31C100.934 35.97 101.702 36.3 102.65 36.3C103.238 36.3 103.76 36.162 104.216 35.886C104.684 35.61 105.044 35.208 105.296 34.68H108.68C108.32 36.048 107.606 37.128 106.538 37.92C105.47 38.7 104.186 39.09 102.686 39.09C101.462 39.09 100.364 38.82 99.3923 38.28C98.4323 37.728 97.6823 36.966 97.1423 35.994C96.6023 35.022 96.3323 33.912 96.3323 32.664ZM116.541 39.126C115.353 39.126 114.261 38.85 113.265 38.298C112.281 37.746 111.495 36.978 110.907 35.994C110.331 34.998 110.043 33.882 110.043 32.646C110.043 31.41 110.331 30.3 110.907 29.316C111.495 28.332 112.281 27.564 113.265 27.012C114.261 26.46 115.353 26.184 116.541 26.184C117.729 26.184 118.815 26.46 119.799 27.012C120.795 27.564 121.575 28.332 122.139 29.316C122.715 30.3 123.003 31.41 123.003 32.646C123.003 33.882 122.715 34.998 122.139 35.994C121.563 36.978 120.783 37.746 119.799 38.298C118.815 38.85 117.729 39.126 116.541 39.126ZM116.541 36.318C117.549 36.318 118.353 35.982 118.953 35.31C119.565 34.638 119.871 33.75 119.871 32.646C119.871 31.53 119.565 30.642 118.953 29.982C118.353 29.31 117.549 28.974 116.541 28.974C115.521 28.974 114.705 29.304 114.093 29.964C113.493 30.624 113.193 31.518 113.193 32.646C113.193 33.762 113.493 34.656 114.093 35.328C114.705 35.988 115.521 36.318 116.541 36.318ZM132.942 26.364V28.83H127.794V31.494H131.646V33.888H127.794V39H124.716V26.364H132.942ZM137.637 26.364V39H134.559V26.364H137.637ZM151.172 39H148.094L142.946 31.206V39H139.868V26.364H142.946L148.094 34.194V26.364H151.172V39ZM158.137 26.364C159.469 26.364 160.633 26.628 161.629 27.156C162.625 27.684 163.393 28.428 163.933 29.388C164.485 30.336 164.761 31.434 164.761 32.682C164.761 33.918 164.485 35.016 163.933 35.976C163.393 36.936 162.619 37.68 161.611 38.208C160.615 38.736 159.457 39 158.137 39H153.403V26.364H158.137ZM157.939 36.336C159.103 36.336 160.009 36.018 160.657 35.382C161.305 34.746 161.629 33.846 161.629 32.682C161.629 31.518 161.305 30.612 160.657 29.964C160.009 29.316 159.103 28.992 157.939 28.992H156.481V36.336H157.939ZM169.559 28.83V31.386H173.681V33.762H169.559V36.534H174.221V39H166.481V26.364H174.221V28.83H169.559ZM182.664 39L180.036 34.23H179.298V39H176.22V26.364H181.386C182.382 26.364 183.228 26.538 183.924 26.886C184.632 27.234 185.16 27.714 185.508 28.326C185.856 28.926 186.03 29.598 186.03 30.342C186.03 31.182 185.79 31.932 185.31 32.592C184.842 33.252 184.146 33.72 183.222 33.996L186.138 39H182.664ZM179.298 32.052H181.206C181.77 32.052 182.19 31.914 182.466 31.638C182.754 31.362 182.898 30.972 182.898 30.468C182.898 29.988 182.754 29.61 182.466 29.334C182.19 29.058 181.77 28.92 181.206 28.92H179.298V32.052Z" fill="#44C969"/>
<path d="M64 18.271V43.694C64 53.7844 55.5565 61.9651 45.1421 61.9651H43.2347L33.4941 71.3963C33.1127 71.7659 32.5849 72 32 72C31.4596 72 30.97 71.809 30.5949 71.4887L30.4296 71.3285L30.4232 71.3224L20.7653 61.9651H18.8516C8.44347 61.9651 0 53.7844 0 43.694V18.271C0 8.1807 8.44347 0 18.8579 0H45.1421C55.5565 0 64 8.1807 64 18.271Z" fill="#00FF19"/>
<path d="M19.3565 23.6093C16.5744 26.3928 15.008 30.1655 15 34.1016C14.9921 38.0378 16.5432 41.8168 19.314 44.6116C22.4377 37.3841 28.0052 31.3469 34.9539 27.7544C28.9562 32.8311 24.9076 39.8341 23.5002 47.5663C29.0252 50.181 35.8251 49.2244 40.3938 44.6541C47.7888 37.2565 49 15 49 15C49 15 26.7514 16.2117 19.3565 23.6093Z" fill="white"/>
</svg>
