<svg width="64" height="72" viewBox="0 0 64 72" fill="none" xmlns="http://www.w3.org/2000/svg">
<path d="M64 18.271V43.694C64 53.7844 55.5565 61.9651 45.1421 61.9651H43.2347L33.4941 71.3963C33.1127 71.7659 32.5849 72 32 72C31.4596 72 30.97 71.809 30.5949 71.4887L30.4296 71.3285L30.4232 71.3224L20.7653 61.9651H18.8516C8.44347 61.9651 0 53.7844 0 43.694V18.271C0 8.1807 8.44347 0 18.8579 0H45.1421C55.5565 0 64 8.1807 64 18.271Z" fill="#00FF19"/>
<path d="M19.3565 23.6093C16.5744 26.3928 15.008 30.1655 15 34.1016C14.9921 38.0378 16.5432 41.8168 19.314 44.6116C22.4377 37.3841 28.0052 31.3469 34.9539 27.7544C28.9562 32.8311 24.9076 39.8341 23.5002 47.5663C29.0252 50.181 35.8251 49.2244 40.3938 44.6541C47.7888 37.2565 49 15 49 15C49 15 26.7514 16.2117 19.3565 23.6093Z" fill="white"/>
</svg>
